Poster: 
http://oyster.ignimgs.com/wordpress/stg.ign.com/2012/09/silent-hill2-poster-XL-watermarked-610x903.jpg

Info:
Format : AVI
Format/Info : Audio Video Interleave
File size : 1.42 GiB
Duration : 1h 27mn
Overall bit rate : 2 328 Kbps
Writing library : VirtualDub build 32842/release

Video
ID : 0
Format : AVC
Format/Info : Advanced Video Codec
Format profile : High@L3.1
Format settings, CABAC : Yes
Format settings, ReFrames : 4 frames
Codec ID : X264
Codec ID/Info : XiWave GNU GPL x264 MPEG-4
Duration : 1h 27mn
Bit rate : 2 000 Kbps
Width : 1 280 pixels
Height : 546 pixels
Display aspect ratio : 2.35:1
Frame rate : 24.000 fps
Color space : YUV
Chroma subsampling : 4:2:0
Bit depth : 8 bits
Scan type : Progressive
Bits/(Pixel*Frame) : 0.119
Stream size : 1.22 GiB (86%)
Writing library : x264 core 125 r2200bm 999b753


Audio
ID : 1
Format : MPEG Audio
Format version : Version 1
Format profile : Layer 3
Codec ID : 55
Codec ID/Hint : MP3
Duration : 1h 27mn
Bit rate mode : Constant
Bit rate : 320 Kbps
Channel(s) : 2 channels
Sampling rate : 44.1 KHz
Compression mode : Lossy
Delay relative to video : 222ms
Stream size : 199 MiB (14%)
Alignment : Split accross interleaves
Interleave, duration : 42 ms (1.00 video frame)
Interleave, preload duration : 500 ms
Writing library : LAMELAME_MAJOR_VERSI

>>>notes here<<<
Source was preety good.
Ran vid thru a few filters. An cleaned the vid up. Turned out nice.
So Decided to Upscale it to 720p.

Ran audio threw a few filters.
The audio is to die for. Nice an clean an clear.Amp Up to the right settings.

Convert To DVD an add 5.1 an you got a killer cam.

Notes:
So Enjoy another quality release from TommieCook!


Screens:
 
http://t.imgbox.com/abz3PRcx.jpg 
http://t.imgbox.com/adeL904x.jpg 
http://t.imgbox.com/ace7s78F.jpg 
http://t.imgbox.com/adn8PzV9.jpg 
http://t.imgbox.com/absgprUA.jpg 
http://t.imgbox.com/acwx97Hn.jpg 
http://t.imgbox.com/abmC22Js.jpg